<svg xmlns="http://www.w3.org/2000/svg" width="48" height="48" viewBox="0 0 48 48">
    <path fill="#FFB85B" fill-rule="nonzero" d="M45.6 2.4h-7.2V0H9.6v2.4H2.4C.96 2.4 0 3.36 0 4.8v5.76c0 5.52 4.08 10.08 9.6 10.8v.24c0 6.96 4.8 12.72 11.28 14.16L19.2 40.8h-5.52c-.96 0-1.92.72-2.16 1.68L9.6 48h28.8l-1.92-5.52c-.24-.96-1.2-1.68-2.16-1.68H28.8l-1.68-5.04c6.48-1.44 11.28-7.2 11.28-14.16v-.24c5.52-.72 9.6-5.28 9.6-10.8V4.8c0-1.44-.96-2.4-2.4-2.4zm-36 14.16c-2.64-.72-4.8-3.12-4.8-6V7.2h4.8v9.36zM28.8 24L24 21.36 19.2 24l1.2-4.8-3.6-4.8h5.04L24 9.6l2.16 4.8h5.04l-3.6 4.8 1.2 4.8zm14.4-13.44c0 2.88-2.16 5.52-4.8 6V7.2h4.8v3.36z"/>
</svg>
