<?xml version="1.0" encoding="UTF-8"?>
<svg width="15px" height="20px" viewBox="0 0 15 20" version="1.1" xmlns="http://www.w3.org/2000/svg" xmlns:xlink="http://www.w3.org/1999/xlink">
    <!-- Generator: Sketch 52.6 (67491) - http://www.bohemiancoding.com/sketch -->
    <title>Path</title>
    <desc>Created with Sketch.</desc>
    <g id="Page-1" stroke="none" stroke-width="1" fill="none" fill-rule="evenodd">
        <g id="Vetal" transform="translate(-1127.000000, -46.000000)" fill="#49B278">
            <g id="btn" transform="translate(1112.000000, 34.000000)">
                <path d="M29.7322216,28.5819489 L27.5919202,25.8170287 C27.155124,25.2471597 26.3252112,25.1205221 25.7136966,25.5215411 C25.0803421,25.9436663 24.6435459,26.2180477 24.5343468,26.2813665 C23.4860359,26.8723418 21.979089,25.1627347 20.6468606,22.9465773 C19.3146322,20.7304198 18.7031175,18.8519626 19.7514284,18.2820936 C19.8824673,18.2187748 20.3411033,17.9866059 21.0181374,17.670012 C21.6733317,17.3534181 21.979089,16.614699 21.6951715,15.9604049 L20.2755839,12.7944657 C20.035346,12.2457029 19.4238313,11.929109 18.8123166,12.0135341 C17.9824038,12.1401716 17.0869716,12.4567655 16.6501754,12.6889344 C14.1604371,14.0819476 14.4880342,19.6540005 17.6329669,24.8883533 C20.7560597,30.1015997 25.5171383,33.03537 28.0068766,31.663463 C28.4436728,31.4101879 29.1862263,30.8192126 29.7103818,30.1860248 C30.0816585,29.721687 30.1034984,29.0462867 29.7322216,28.5819489 Z" id="Path"></path>
            </g>
        </g>
    </g>
</svg>