<svg xmlns="http://www.w3.org/2000/svg" width="25" height="20" viewBox="0 0 25 20">
    <path fill="#5F667A" fill-rule="nonzero" d="M25 2.368c-.93.401-1.92.667-2.953.797a5.033 5.033 0 0 0 2.255-2.79 10.34 10.34 0 0 1-3.25 1.222A5.174 5.174 0 0 0 17.308 0c-2.838 0-5.122 2.268-5.122 5.048 0 .4.034.784.119 1.15A14.583 14.583 0 0 1 1.74.92a5.021 5.021 0 0 0-.702 2.55c0 1.748.914 3.298 2.277 4.195A5.122 5.122 0 0 1 1 7.043v.055c0 2.453 1.777 4.49 4.106 4.959a5.19 5.19 0 0 1-1.343.166 4.6 4.6 0 0 1-.97-.086 5.164 5.164 0 0 0 4.788 3.515 10.4 10.4 0 0 1-6.354 2.153c-.42 0-.824-.019-1.227-.07A14.593 14.593 0 0 0 7.862 20c9.432 0 14.588-7.692 14.588-14.36 0-.223-.008-.438-.019-.652A10.14 10.14 0 0 0 25 2.368z"/>
</svg>
